<svg width="109" height="24" viewBox="0 0 109 24" fill="none" xmlns="http://www.w3.org/2000/svg">
<path d="M9.27419 19.24C7.57819 19.24 6.04219 18.872 4.66619 18.136C3.30619 17.384 2.23419 16.352 1.45019 15.04C0.682188 13.728 0.298188 12.248 0.298188 10.6C0.298188 8.952 0.690188 7.472 1.47419 6.16C2.25819 4.848 3.33019 3.824 4.69019 3.088C6.06619 2.336 7.60219 1.96 9.29819 1.96C10.6742 1.96 11.9302 2.2 13.0662 2.68C14.2022 3.16 15.1622 3.856 15.9462 4.768L13.9302 6.664C12.7142 5.352 11.2182 4.696 9.44219 4.696C8.29019 4.696 7.25819 4.952 6.34619 5.464C5.43419 5.96 4.72219 6.656 4.21019 7.552C3.69819 8.448 3.44219 9.464 3.44219 10.6C3.44219 11.736 3.69819 12.752 4.21019 13.648C4.72219 14.544 5.43419 15.248 6.34619 15.76C7.25819 16.256 8.29019 16.504 9.44219 16.504C11.2182 16.504 12.7142 15.84 13.9302 14.512L15.9462 16.432C15.1622 17.344 14.1942 18.04 13.0422 18.52C11.9062 19 10.6502 19.24 9.27419 19.24ZM23.9389 19.168C22.6429 19.168 21.4749 18.888 20.4349 18.328C19.3949 17.768 18.5789 16.992 17.9869 16C17.4109 14.992 17.1229 13.856 17.1229 12.592C17.1229 11.328 17.4109 10.2 17.9869 9.208C18.5789 8.216 19.3949 7.44 20.4349 6.88C21.4749 6.32 22.6429 6.04 23.9389 6.04C25.2509 6.04 26.4269 6.32 27.4669 6.88C28.5069 7.44 29.3149 8.216 29.8909 9.208C30.4829 10.2 30.7789 11.328 30.7789 12.592C30.7789 13.856 30.4829 14.992 29.8909 16C29.3149 16.992 28.5069 17.768 27.4669 18.328C26.4269 18.888 25.2509 19.168 23.9389 19.168ZM23.9389 16.6C25.0429 16.6 25.9549 16.232 26.6749 15.496C27.3949 14.76 27.7549 13.792 27.7549 12.592C27.7549 11.392 27.3949 10.424 26.6749 9.688C25.9549 8.952 25.0429 8.584 23.9389 8.584C22.8349 8.584 21.9229 8.952 21.2029 9.688C20.4989 10.424 20.1469 11.392 20.1469 12.592C20.1469 13.792 20.4989 14.76 21.2029 15.496C21.9229 16.232 22.8349 16.6 23.9389 16.6ZM46.3677 6.184V17.056C46.3677 21.568 44.0637 23.824 39.4557 23.824C38.2237 23.824 37.0557 23.664 35.9517 23.344C34.8477 23.04 33.9357 22.592 33.2157 22L34.5597 19.744C35.1197 20.208 35.8237 20.576 36.6717 20.848C37.5357 21.136 38.4077 21.28 39.2877 21.28C40.6957 21.28 41.7277 20.96 42.3837 20.32C43.0397 19.68 43.3677 18.704 43.3677 17.392V16.72C42.8557 17.28 42.2317 17.704 41.4957 17.992C40.7597 18.28 39.9517 18.424 39.0717 18.424C37.8557 18.424 36.7517 18.168 35.7597 17.656C34.7837 17.128 34.0077 16.392 33.4317 15.448C32.8717 14.504 32.5917 13.424 32.5917 12.208C32.5917 10.992 32.8717 9.92 33.4317 8.992C34.0077 8.048 34.7837 7.32 35.7597 6.808C36.7517 6.296 37.8557 6.04 39.0717 6.04C39.9997 6.04 40.8397 6.192 41.5917 6.496C42.3597 6.8 42.9997 7.264 43.5117 7.888V6.184H46.3677ZM39.5277 15.88C40.6637 15.88 41.5917 15.544 42.3117 14.872C43.0477 14.184 43.4157 13.296 43.4157 12.208C43.4157 11.136 43.0477 10.264 42.3117 9.592C41.5917 8.92 40.6637 8.584 39.5277 8.584C38.3757 8.584 37.4317 8.92 36.6957 9.592C35.9757 10.264 35.6157 11.136 35.6157 12.208C35.6157 13.296 35.9757 14.184 36.6957 14.872C37.4317 15.544 38.3757 15.88 39.5277 15.88ZM57.5838 6.04C59.1998 6.04 60.4958 6.512 61.4718 7.456C62.4478 8.4 62.9358 9.8 62.9358 11.656V19H59.9358V12.04C59.9358 10.92 59.6718 10.08 59.1438 9.52C58.6158 8.944 57.8638 8.656 56.8878 8.656C55.7838 8.656 54.9118 8.992 54.2718 9.664C53.6318 10.32 53.3118 11.272 53.3118 12.52V19H50.3118V6.184H53.1678V7.84C53.6638 7.248 54.2878 6.8 55.0398 6.496C55.7918 6.192 56.6398 6.04 57.5838 6.04ZM66.7414 6.184H69.7414V19H66.7414V6.184ZM68.2534 4.072C67.7094 4.072 67.2534 3.904 66.8854 3.568C66.5174 3.216 66.3334 2.784 66.3334 2.272C66.3334 1.76 66.5174 1.336 66.8854 0.999999C67.2534 0.647999 67.7094 0.472 68.2534 0.472C68.7974 0.472 69.2534 0.639999 69.6214 0.975999C69.9894 1.296 70.1734 1.704 70.1734 2.2C70.1734 2.728 69.9894 3.176 69.6214 3.544C69.2694 3.896 68.8134 4.072 68.2534 4.072ZM81.3109 4.696C79.8709 4.696 78.7829 5.016 78.0469 5.656C77.3109 6.296 76.9429 7.24 76.9429 8.488V9.928H84.2629V12.568H76.9429V19H73.8229V8.488C73.8229 6.456 74.4709 4.864 75.7669 3.712C77.0789 2.544 78.8789 1.96 81.1669 1.96C82.1269 1.96 83.0229 2.064 83.8549 2.272C84.6869 2.48 85.4149 2.784 86.0389 3.184L85.0549 5.728C84.0629 5.04 82.8149 4.696 81.3109 4.696ZM92.5514 19.168C91.2234 19.168 90.1834 18.808 89.4314 18.088C88.6954 17.352 88.3274 16.32 88.3274 14.992V1.192H91.3274V14.776C91.3274 16.056 91.9274 16.696 93.1274 16.696C93.5274 16.696 93.8874 16.616 94.2074 16.456L94.3514 18.856C93.7914 19.064 93.1914 19.168 92.5514 19.168ZM108.798 6.184V17.056C108.798 21.568 106.582 23.824 102.15 23.824C100.982 23.824 99.8619 23.664 98.7899 23.344C97.7339 23.04 96.8619 22.592 96.1739 22L97.5179 19.744C98.0619 20.208 98.7259 20.576 99.5099 20.848C100.294 21.12 101.118 21.256 101.982 21.256C103.294 21.256 104.254 20.936 104.862 20.296C105.486 19.672 105.798 18.704 105.798 17.392V16.792C105.318 17.32 104.734 17.728 104.046 18.016C103.358 18.288 102.614 18.424 101.814 18.424C100.102 18.424 98.7499 17.952 97.7579 17.008C96.7819 16.064 96.2939 14.648 96.2939 12.76V6.184H99.2939V12.376C99.2939 13.512 99.5499 14.368 100.062 14.944C100.59 15.504 101.334 15.784 102.294 15.784C103.366 15.784 104.214 15.456 104.838 14.8C105.478 14.144 105.798 13.192 105.798 11.944V6.184H108.798Z" fill="white"/>
</svg>
