<svg width="56" height="56" viewBox="0 0 56 56" fill="none" xmlns="http://www.w3.org/2000/svg">
<rect x="0.5" y="0.5" width="55" height="55" rx="15.5" fill="#BBACFB" stroke="white"/>
<path d="M17.2081 32.739L22.4433 29.0619M17.2081 32.739L7.78261 44L25.0036 33.1132M17.2081 32.739L25.0036 33.1132M36.0349 22.443L39.8592 29.0619M36.0349 22.443L41.9275 19.3855M36.0349 22.443L32.2107 23.0746M36.0349 22.443L50.4493 12L35.5937 17.7363L30.1515 22.1575M39.8592 29.0619L35.5937 33.6215L25.0036 33.1132M39.8592 29.0619L44.2 22.7942M41.9275 19.3855L44.2 22.7942M41.9275 19.3855L48.7449 18.8174L44.2 22.7942M32.2107 23.0746L30.1515 22.1575M32.2107 23.0746L33.6816 24.5022L24.7094 30.6798L22.4433 29.0619M22.4433 29.0619L5 16.5596L20.8852 18.0305L30.1515 22.1575" stroke="white" stroke-width="0.927536"/>
</svg>
